{
  "accessors": [
    {
      "bufferView": 2,
      "componentType": 5126,
      "count": 4061,
      "max": [
        32.85469055175781,
        -19.562576293945313,
        6.19049596786499
      ],
      "min": [
        -32.85466003417969,
        -33.940582275390625,
        -15.819108963012695
      ],
      "type": "VEC3"
    },
    {
      "bufferView": 2,
      "byteOffset": 48732,
      "componentType": 5126,
      "count": 4061,
      "max": [
        0.9999991059303284,
        0.9972530007362366,
        0.9997594952583313
      ],
      "min": [
        -0.9999991059303284,
        -0.9996735453605652,
        -0.9999845027923584
      ],
      "type": "VEC3"
    },
    {
      "bufferView": 3,
      "componentType": 5126,
      "count": 4061,
      "max": [
        1.0,
        0.9998843669891357,
        0.9999765157699585,
        1.0
      ],
      "min": [
        -0.8554613590240479,
        -0.9950107336044312,
        -0.9999800324440002,
        1.0
      ],
      "type": "VEC4"
    },
    {
      "bufferView": 1,
      "componentType": 5126,
      "count": 4061,
      "max": [
        0.9931060075759888,
        0.9823790192604065
      ],
      "min": [
        0.4005819857120514,
        0.0
      ],
      "type": "VEC2"
    },
    {
      "bufferView": 0,
      "componentType": 5125,
      "count": 19152,
      "type": "SCALAR"
    },
    {
      "bufferView": 2,
      "byteOffset": 97464,
      "componentType": 5126,
      "count": 220,
      "max": [
        31.003765106201172,
        -22.619415283203125,
        5.297512054443359
      ],
      "min": [
        -31.00376319885254,
        -32.18694305419922,
        -14.584996223449707
      ],
      "type": "VEC3"
    },
    {
      "bufferView": 2,
      "byteOffset": 100104,
      "componentType": 5126,
      "count": 220,
      "max": [
        0.43959593772888184,
        -0.858418881893158,
        0.3335769772529602
      ],
      "min": [
        -0.43959593772888184,
        -0.9815837740898132,
        -0.14340704679489136
      ],
      "type": "VEC3"
    },
    {
      "bufferView": 3,
      "byteOffset": 64976,
      "componentType": 5126,
      "count": 220,
      "max": [
        0.9888108968734741,
        -0.14727279543876648,
        0.2564353346824646,
        1.0
      ],
      "min": [
        -0.9888109564781189,
        -0.4456155002117157,
        -0.29866981506347656,
        -1.0
      ],
      "type": "VEC4"
    },
    {
      "bufferView": 1,
      "byteOffset": 32488,
      "componentType": 5126,
      "count": 220,
      "max": [
        1.0,
        1.0
      ],
      "min": [
        0.0,
        0.0
      ],
      "type": "VEC2"
    },
    {
      "bufferView": 0,
      "byteOffset": 76608,
      "componentType": 5125,
      "count": 1080,
      "type": "SCALAR"
    },
    {
      "bufferView": 2,
      "byteOffset": 102744,
      "componentType": 5126,
      "count": 3732,
      "max": [
        34.74296188354492,
        -8.047866821289063,
        7.407260894775391
      ],
      "min": [
        -34.74296569824219,
        -34.41259765625,
        -4.848250865936279
      ],
      "type": "VEC3"
    },
    {
      "bufferView": 2,
      "byteOffset": 147528,
      "componentType": 5126,
      "count": 3732,
      "max": [
        1.0,
        0.999592125415802,
        0.9999972581863403
      ],
      "min": [
        -1.0,
        -0.9995033740997314,
        -1.0
      ],
      "type": "VEC3"
    },
    {
      "bufferView": 3,
      "byteOffset": 68496,
      "componentType": 5126,
      "count": 3732,
      "max": [
        0.9999998807907104,
        0.9999999403953552,
        0.9999001026153564,
        1.0
      ],
      "min": [
        -0.9859641790390015,
        -0.9958816170692444,
        -0.9673453569412231,
        1.0
      ],
      "type": "VEC4"
    },
    {
      "bufferView": 1,
      "byteOffset": 34248,
      "componentType": 5126,
      "count": 3732,
      "max": [
        0.9798579812049866,
        1.0
      ],
      "min": [
        0.4005819857120514,
        0.0
      ],
      "type": "VEC2"
    },
    {
      "bufferView": 0,
      "byteOffset": 80928,
      "componentType": 5125,
      "count": 17184,
      "type": "SCALAR"
    },
    {
      "bufferView": 2,
      "byteOffset": 192312,
      "componentType": 5126,
      "count": 3320,
      "max": [
        35.52777099609375,
        132.36447143554688,
        0.16702499985694885
      ],
      "min": [
        -35.53308868408203,
        -12.358673095703125,
        -26.951557159423828
      ],
      "type": "VEC3"
    },
    {
      "bufferView": 2,
      "byteOffset": 232152,
      "componentType": 5126,
      "count": 3320,
      "max": [
        1.0,
        0.9933763742446899,
        0.9999731183052063
      ],
      "min": [
        -1.0,
        -0.9994653463363647,
        -0.9999972581863403
      ],
      "type": "VEC3"
    },
    {
      "bufferView": 3,
      "byteOffset": 128208,
      "componentType": 5126,
      "count": 3320,
      "max": [
        0.9999813437461853,
        0.9997707009315491,
        0.9104424118995667,
        1.0
      ],
      "min": [
        -0.9997408986091614,
        -0.9999003410339355,
        -0.998813271522522,
        1.0
      ],
      "type": "VEC4"
    },
    {
      "bufferView": 1,
      "byteOffset": 64104,
      "componentType": 5126,
      "count": 3320,
      "max": [
        0.9585859775543213,
        0.9877269864082336
      ],
      "min": [
        0.0,
        0.0
      ],
      "type": "VEC2"
    },
    {
      "bufferView": 0,
      "byteOffset": 149664,
      "componentType": 5125,
      "count": 15936,
      "type": "SCALAR"
    }
  ],
  "asset": {
    "extras": {
      "author": "abdullahyeahyea (https://sketchfab.com/abdullahyeahyea)",
      "license": "CC-BY-4.0 (http://creativecommons.org/licenses/by/4.0/)",
      "source": "https://sketchfab.com/3d-models/cazal-sunglasses-3ead5878ad3140d2a5f17ba2c56901b2",
      "title": "Cazal Sunglasses"
    },
    "generator": "Sketchfab-12.68.0",
    "version": "2.0"
  },
  "bufferViews": [
    {
      "buffer": 0,
      "byteLength": 213408,
      "name": "floatBufferViews",
      "target": 34963
    },
    {
      "buffer": 0,
      "byteLength": 90664,
      "byteOffset": 213408,
      "byteStride": 8,
      "name": "floatBufferViews",
      "target": 34962
    },
    {
      "buffer": 0,
      "byteLength": 271992,
      "byteOffset": 304072,
      "byteStride": 12,
      "name": "floatBufferViews",
      "target": 34962
    },
    {
      "buffer": 0,
      "byteLength": 181328,
      "byteOffset": 576064,
      "byteStride": 16,
      "name": "floatBufferViews",
      "target": 34962
    }
  ],
  "buffers": [
    {
      "byteLength": 757392,
      "uri": "scene.bin"
    }
  ],
  "images": [
    {
      "uri": "textures/BODY_baseColor.png"
    },
    {
      "uri": "textures/BODY_metallicRoughness.png"
    },
    {
      "uri": "textures/BODY_normal.png"
    },
    {
      "uri": "textures/GLASS_baseColor.png"
    },
    {
      "uri": "textures/GLASS_metallicRoughness.png"
    },
    {
      "uri": "textures/GLASS_normal.png"
    },
    {
      "uri": "textures/FRAME_baseColor.jpeg"
    },
    {
      "uri": "textures/FRAME_metallicRoughness.png"
    },
    {
      "uri": "textures/FRAME_normal.png"
    },
    {
      "uri": "textures/FRAME_0_baseColor.jpeg"
    },
    {
      "uri": "textures/FRAME_0_metallicRoughness.png"
    },
    {
      "uri": "textures/FRAME_0_normal.png"
    }
  ],
  "materials": [
    {
      "alphaMode": "BLEND",
      "doubleSided": true,
      "name": "BODY",
      "normalTexture": {
        "index": 2
      },
      "occlusionTexture": {
        "index": 1
      },
      "pbrMetallicRoughness": {
        "baseColorTexture": {
          "index": 0
        },
        "metallicRoughnessTexture": {
          "index": 1
        }
      }
    },
    {
      "alphaMode": "BLEND",
      "doubleSided": true,
      "name": "GLASS",
      "normalTexture": {
        "index": 5
      },
      "occlusionTexture": {
        "index": 4
      },
      "pbrMetallicRoughness": {
        "baseColorTexture": {
          "index": 3
        },
        "metallicRoughnessTexture": {
          "index": 4
        }
      }
    },
    {
      "doubleSided": true,
      "name": "FRAME",
      "normalTexture": {
        "index": 8
      },
      "occlusionTexture": {
        "index": 7
      },
      "pbrMetallicRoughness": {
        "baseColorTexture": {
          "index": 6
        },
        "metallicRoughnessTexture": {
          "index": 7
        }
      }
    },
    {
      "doubleSided": true,
      "name": "FRAME_0",
      "normalTexture": {
        "index": 11
      },
      "occlusionTexture": {
        "index": 10
      },
      "pbrMetallicRoughness": {
        "baseColorTexture": {
          "index": 9
        },
        "metallicRoughnessTexture": {
          "index": 10
        }
      }
    }
  ],
  "meshes": [
    {
      "name": "defaultMaterial",
      "primitives": [
        {
          "attributes": {
            "NORMAL": 1,
            "POSITION": 0,
            "TANGENT": 2,
            "TEXCOORD_0": 3
          },
          "indices": 4,
          "material": 0,
          "mode": 4
        }
      ]
    },
    {
      "name": "defaultMaterial",
      "primitives": [
        {
          "attributes": {
            "NORMAL": 6,
            "POSITION": 5,
            "TANGENT": 7,
            "TEXCOORD_0": 8
          },
          "indices": 9,
          "material": 1,
          "mode": 4
        }
      ]
    },
    {
      "name": "defaultMaterial",
      "primitives": [
        {
          "attributes": {
            "NORMAL": 11,
            "POSITION": 10,
            "TANGENT": 12,
            "TEXCOORD_0": 13
          },
          "indices": 14,
          "material": 2,
          "mode": 4
        }
      ]
    },
    {
      "name": "defaultMaterial",
      "primitives": [
        {
          "attributes": {
            "NORMAL": 16,
            "POSITION": 15,
            "TANGENT": 17,
            "TEXCOORD_0": 18
          },
          "indices": 19,
          "material": 3,
          "mode": 4
        }
      ]
    }
  ],
  "nodes": [
    {
      "children": [
        1
      ],
      "matrix": [
        1.0,
        0.0,
        0.0,
        0.0,
        0.0,
        2.220446049250313e-16,
        -1.0,
        0.0,
        0.0,
        1.0,
        2.220446049250313e-16,
        0.0,
        0.0,
        0.0,
        0.0,
        1.0
      ],
      "name": "Sketchfab_model"
    },
    {
      "children": [
        2
      ],
      "matrix": [
        1.0,
        0.0,
        0.0,
        0.0,
        0.0,
        -4.371139006309477e-08,
        0.999999999999999,
        0.0,
        0.0,
        -0.999999999999999,
        -4.371139006309477e-08,
        0.0,
        0.0,
        0.0,
        0.0,
        1.0
      ],
      "name": "Collada visual scene group"
    },
    {
      "children": [
        3,
        4,
        5,
        6
      ],
      "matrix": [
        7.114416,
        0.0,
        0.0,
        0.0,
        0.0,
        0.445907,
        -2.802505,
        0.0,
        0.0,
        7.026035,
        1.117914,
        0.0,
        0.0,
        46.499367,
        -47.82967,
        1.0
      ],
      "name": "Cube"
    },
    {
      "mesh": 0,
      "name": "defaultMaterial"
    },
    {
      "mesh": 1,
      "name": "defaultMaterial"
    },
    {
      "mesh": 2,
      "name": "defaultMaterial"
    },
    {
      "mesh": 3,
      "name": "defaultMaterial"
    }
  ],
  "samplers": [
    {
      "magFilter": 9729,
      "minFilter": 9987,
      "wrapS": 10497,
      "wrapT": 10497
    }
  ],
  "scene": 0,
  "scenes": [
    {
      "name": "Sketchfab_Scene",
      "nodes": [
        0
      ]
    }
  ],
  "textures": [
    {
      "sampler": 0,
      "source": 0
    },
    {
      "sampler": 0,
      "source": 1
    },
    {
      "sampler": 0,
      "source": 2
    },
    {
      "sampler": 0,
      "source": 3
    },
    {
      "sampler": 0,
      "source": 4
    },
    {
      "sampler": 0,
      "source": 5
    },
    {
      "sampler": 0,
      "source": 6
    },
    {
      "sampler": 0,
      "source": 7
    },
    {
      "sampler": 0,
      "source": 8
    },
    {
      "sampler": 0,
      "source": 9
    },
    {
      "sampler": 0,
      "source": 10
    },
    {
      "sampler": 0,
      "source": 11
    }
  ]
}
